<!DOCTYPE svg PUBLIC "-//W3C//DTD SVG 1.1//EN" "http://www.w3.org/Graphics/SVG/1.1/DTD/svg11.dtd">
<!-- Uploaded to: SVG Repo, www.svgrepo.com, Transformed by: SVG Repo Mixer Tools -->
<svg width="64px" height="64px" viewBox="0 0 36 36" xmlns="http://www.w3.org/2000/svg" xmlns:xlink="http://www.w3.org/1999/xlink" aria-hidden="true" role="img" class="iconify iconify--twemoji" preserveAspectRatio="xMidYMid meet" fill="#000000">
<g id="SVGRepo_bgCarrier" stroke-width="0"/>
<g id="SVGRepo_tracerCarrier" stroke-linecap="round" stroke-linejoin="round"/>
<g id="SVGRepo_iconCarrier">
<path fill="#202dd9" d="M36 32a4 4 0 0 1-4 4H4a4 4 0 0 1-4-4V4a4 4 0 0 1 4-4h28a4 4 0 0 1 4 4v28z"/>
<path fill="#FFF" d="M8.917 10.117A2.903 2.903 0 0 1 8.7 8.97c0-1.302 1.147-2.232 2.387-2.232c1.055 0 1.706.682 2.108 1.519l4.806 12.898l4.807-12.898c.402-.837 1.053-1.519 2.107-1.519c1.24 0 2.387.93 2.387 2.232c0 .434-.06.744-.217 1.147l-6.789 17.271c-.404.992-.931 1.798-2.295 1.798c-1.364 0-1.891-.806-2.295-1.798L8.917 10.117z"/>
</g>
</svg>